<svg xmlns="http://www.w3.org/2000/svg" xmlns:xlink="http://www.w3.org/1999/xlink" width="3780" zoomAndPan="magnify" viewBox="0 0 2835 1417.499962" height="1890" preserveAspectRatio="xMidYMid meet" version="1.0"><defs><g/><clipPath id="39aa396802"><path d="M 0.121094 0.351562 L 2500.277344 0.351562 L 2500.277344 443.714844 L 0.121094 443.714844 Z M 0.121094 0.351562 " clip-rule="nonzero"/></clipPath><clipPath id="a67d2a1da7"><rect x="0" width="2501" y="0" height="444"/></clipPath><clipPath id="8b4054985c"><rect x="0" width="2501" y="0" height="444"/></clipPath></defs><g transform="matrix(1, 0, 0, 1, 170, 479)"><g clip-path="url(#8b4054985c)"><g clip-path="url(#39aa396802)"><g transform="matrix(1, 0, 0, 1, -0.000000000000028422, -0.000000000000113687)"><g clip-path="url(#a67d2a1da7)"><g fill="#ffffff" fill-opacity="1"><g transform="translate(0.120019, 343.21178)"><g><path d="M 322.140625 -277.65625 L 259.859375 -128.296875 C 259.234375 -126.734375 258.296875 -126.109375 257.046875 -126.421875 C 255.796875 -126.734375 255.484375 -127.671875 256.109375 -129.234375 C 264.847656 -151.390625 267.5 -173.9375 264.0625 -196.875 C 260.632812 -219.820312 253.613281 -240.503906 243 -258.921875 C 232.695312 -277.960938 219.742188 -293.023438 204.140625 -304.109375 C 188.535156 -315.191406 172.773438 -320.734375 156.859375 -320.734375 C 137.191406 -320.734375 121.191406 -315.660156 108.859375 -305.515625 C 96.523438 -295.367188 90.359375 -277.8125 90.359375 -252.84375 C 90.359375 -225.0625 94.570312 -198.367188 103 -172.765625 C 111.4375 -147.171875 122.988281 -124.382812 137.65625 -104.40625 C 152.320312 -84.4375 168.941406 -68.597656 187.515625 -56.890625 C 206.085938 -45.179688 225.519531 -39.328125 245.8125 -39.328125 C 252.675781 -39.328125 260.632812 -40.109375 269.6875 -41.671875 C 278.738281 -43.234375 288.179688 -46.039062 298.015625 -50.09375 C 307.847656 -54.15625 316.976562 -60.085938 325.40625 -67.890625 C 326.96875 -69.453125 328.21875 -69.84375 329.15625 -69.0625 C 330.09375 -68.28125 329.78125 -67.109375 328.21875 -65.546875 C 308.238281 -41.828125 285.921875 -23.566406 261.265625 -10.765625 C 236.609375 2.023438 210.078125 8.421875 181.671875 8.421875 C 159.191406 8.421875 137.960938 4.519531 117.984375 -3.28125 C 98.015625 -11.082031 80.300781 -22.238281 64.84375 -36.75 C 49.394531 -51.269531 37.222656 -68.75 28.328125 -89.1875 C 19.429688 -109.632812 14.984375 -132.503906 14.984375 -157.796875 C 14.984375 -182.765625 19.820312 -206.015625 29.5 -227.546875 C 39.175781 -249.085938 52.519531 -267.972656 69.53125 -284.203125 C 86.539062 -300.441406 106.125 -313.085938 128.28125 -322.140625 C 150.445312 -331.191406 173.863281 -335.71875 198.53125 -335.71875 C 216.007812 -335.71875 232.550781 -333.921875 248.15625 -330.328125 C 263.757812 -326.734375 277.570312 -322.050781 289.59375 -316.28125 C 301.613281 -310.507812 310.585938 -304.1875 316.515625 -297.3125 C 322.441406 -290.445312 324.316406 -283.894531 322.140625 -277.65625 Z M 322.140625 -277.65625 "/></g></g></g><g fill="#ffffff" fill-opacity="1"><g transform="translate(333.964206, 343.21178)"><g><path d="M 179.328125 -226.15625 C 187.441406 -226.15625 195.398438 -224.671875 203.203125 -221.703125 C 211.003906 -218.734375 217.085938 -214.4375 221.453125 -208.8125 C 225.828125 -203.195312 226.925781 -196.488281 224.75 -188.6875 L 193.84375 -83.8125 C 193.53125 -81.9375 192.828125 -81.234375 191.734375 -81.703125 C 190.640625 -82.171875 190.25 -83.1875 190.5625 -84.75 C 194 -104.414062 193.453125 -120.566406 188.921875 -133.203125 C 184.398438 -145.847656 178.003906 -155.210938 169.734375 -161.296875 C 161.460938 -167.390625 153.421875 -170.4375 145.609375 -170.4375 C 137.179688 -170.4375 130.859375 -166.453125 126.640625 -158.484375 C 122.429688 -150.523438 119.625 -139.988281 118.21875 -126.875 C 116.820312 -113.769531 116.125 -99.570312 116.125 -84.28125 L 116.125 -51.5 C 116.125 -34.019531 117.835938 -21.691406 121.265625 -14.515625 C 124.703125 -7.335938 132.351562 -3.59375 144.21875 -3.28125 C 145.769531 -3.28125 146.546875 -2.578125 146.546875 -1.171875 C 146.546875 0.234375 145.769531 0.9375 144.21875 0.9375 C 138.28125 0.625 129.222656 0.390625 117.046875 0.234375 C 104.878906 0.078125 91.769531 0 77.71875 0 C 63.675781 0 50.566406 0.078125 38.390625 0.234375 C 26.222656 0.390625 17.015625 0.625 10.765625 0.9375 C 9.203125 0.9375 8.421875 0.234375 8.421875 -1.171875 C 8.421875 -2.578125 9.359375 -3.28125 11.234375 -3.28125 C 18.097656 -3.28125 23.484375 -4.054688 27.390625 -5.609375 C 31.296875 -7.171875 34.179688 -11.382812 36.046875 -18.25 C 37.921875 -25.125 38.859375 -36.363281 38.859375 -51.96875 L 38.859375 -140.46875 C 38.859375 -156.695312 37.0625 -168.554688 33.46875 -176.046875 C 29.882812 -183.535156 21.691406 -186.503906 8.890625 -184.953125 C 7.640625 -184.640625 6.9375 -185.101562 6.78125 -186.34375 C 6.632812 -187.59375 7.179688 -188.375 8.421875 -188.6875 C 19.660156 -191.1875 31.753906 -194.460938 44.703125 -198.515625 C 57.660156 -202.578125 70.304688 -207.257812 82.640625 -212.5625 C 94.972656 -217.875 105.820312 -223.648438 115.1875 -229.890625 C 119.238281 -232.703125 121.265625 -232.078125 121.265625 -228.015625 C 120.015625 -213.035156 119 -200.628906 118.21875 -190.796875 C 117.445312 -180.960938 116.90625 -172.066406 116.59375 -164.109375 C 116.28125 -156.148438 116.125 -147.488281 116.125 -138.125 C 117.363281 -147.488281 119.234375 -157.320312 121.734375 -167.625 C 124.234375 -177.925781 127.898438 -187.523438 132.734375 -196.421875 C 137.578125 -205.316406 143.742188 -212.492188 151.234375 -217.953125 C 158.722656 -223.421875 168.085938 -226.15625 179.328125 -226.15625 Z M 179.328125 -226.15625 "/></g></g><g transform="translate(566.203675, 343.21178)"><g><path d="M 227.09375 -43.546875 C 227.09375 -43.859375 227.554688 -43.78125 228.484375 -43.3125 C 229.421875 -42.84375 229.421875 -41.828125 228.484375 -40.265625 C 220.367188 -29.648438 210.378906 -20.753906 198.515625 -13.578125 C 186.660156 -6.398438 174.332031 -0.941406 161.53125 2.796875 C 148.738281 6.546875 136.410156 8.421875 124.546875 8.421875 C 103.941406 8.421875 84.742188 3.816406 66.953125 -5.390625 C 49.160156 -14.597656 34.878906 -27.707031 24.109375 -44.71875 C 13.335938 -61.726562 7.953125 -81.78125 7.953125 -104.875 C 7.953125 -120.800781 11.148438 -136.097656 17.546875 -150.765625 C 23.953125 -165.429688 33.003906 -178.382812 44.703125 -189.625 C 56.410156 -200.863281 70.066406 -209.757812 85.671875 -216.3125 C 101.285156 -222.875 118.144531 -226.15625 136.25 -226.15625 C 151.539062 -226.15625 165.742188 -223.734375 178.859375 -218.890625 C 191.972656 -214.054688 202.898438 -206.957031 211.640625 -197.59375 C 220.378906 -188.226562 225.992188 -176.519531 228.484375 -162.46875 C 230.984375 -148.425781 229.269531 -132.195312 223.34375 -113.78125 C 216.78125 -113.46875 201.5625 -113 177.6875 -112.375 C 153.8125 -111.75 122.675781 -110.65625 84.28125 -109.09375 C 91.457031 -94.113281 100.507812 -80.457031 111.4375 -68.125 C 122.363281 -55.789062 134.378906 -46.035156 147.484375 -38.859375 C 160.597656 -31.679688 174.019531 -28.09375 187.75 -28.09375 C 194 -28.09375 200.554688 -29.109375 207.421875 -31.140625 C 214.285156 -33.171875 220.84375 -37.304688 227.09375 -43.546875 Z M 103.46875 -215.84375 C 80.6875 -215.84375 69.296875 -200.707031 69.296875 -170.4375 C 69.296875 -160.757812 70.539062 -151.003906 73.03125 -141.171875 C 75.53125 -131.335938 78.8125 -121.738281 82.875 -112.375 C 99.414062 -113 113.695312 -113.546875 125.71875 -114.015625 C 137.738281 -114.484375 146.710938 -114.875 152.640625 -115.1875 C 156.390625 -117.988281 158.109375 -123.132812 157.796875 -130.625 C 157.484375 -138.125 155.609375 -146.710938 152.171875 -156.390625 C 148.734375 -166.066406 144.285156 -175.429688 138.828125 -184.484375 C 133.367188 -193.535156 127.59375 -201.023438 121.5 -206.953125 C 115.414062 -212.878906 109.40625 -215.84375 103.46875 -215.84375 Z M 103.46875 -215.84375 "/></g></g></g><g fill="#ffffff" fill-opacity="1"><g transform="translate(807.339389, 343.21178)"><g><path d="M 284.203125 -94.109375 C 284.203125 -95.671875 284.90625 -96.6875 286.3125 -97.15625 C 287.71875 -97.625 288.421875 -96.609375 288.421875 -94.109375 C 288.421875 -72.578125 284.910156 -54.160156 277.890625 -38.859375 C 270.867188 -23.566406 261.738281 -11.941406 250.5 -3.984375 C 239.257812 3.972656 227.550781 7.953125 215.375 7.953125 C 204.457031 7.953125 194.625 3.347656 185.875 -5.859375 C 177.132812 -15.066406 170.582031 -29.035156 166.21875 -47.765625 L 164.8125 -54.3125 C 158.570312 -33.082031 148.582031 -17.394531 134.84375 -7.25 C 121.113281 2.882812 106.597656 7.953125 91.296875 7.953125 C 72.253906 7.953125 56.644531 3.894531 44.46875 -4.21875 C 32.300781 -12.332031 23.40625 -22.628906 17.78125 -35.109375 C 12.164062 -47.597656 9.515625 -60.398438 9.828125 -73.515625 C 10.453125 -89.742188 18.332031 -102.304688 33.46875 -111.203125 C 48.613281 -120.097656 68.515625 -124.546875 93.171875 -124.546875 C 105.972656 -124.546875 116.820312 -124.078125 125.71875 -123.140625 C 134.613281 -122.203125 142.492188 -120.953125 149.359375 -119.390625 L 138.125 -165.75 C 135 -180.414062 129.457031 -191.335938 121.5 -198.515625 C 113.539062 -205.703125 102.695312 -209.296875 88.96875 -209.296875 C 78.039062 -209.296875 67.738281 -207.421875 58.0625 -203.671875 C 48.382812 -199.929688 40.265625 -193.535156 33.703125 -184.484375 C 27.148438 -175.429688 22.9375 -162.941406 21.0625 -147.015625 C 20.757812 -144.835938 19.828125 -143.671875 18.265625 -143.515625 C 16.703125 -143.359375 16.078125 -144.523438 16.390625 -147.015625 C 18.265625 -162.316406 22.710938 -175.035156 29.734375 -185.171875 C 36.753906 -195.316406 45.492188 -203.429688 55.953125 -209.515625 C 66.410156 -215.609375 77.566406 -219.984375 89.421875 -222.640625 C 101.285156 -225.296875 112.835938 -226.625 124.078125 -226.625 C 153.734375 -226.625 175.894531 -221.316406 190.5625 -210.703125 C 205.238281 -200.085938 215.539062 -181.828125 221.46875 -155.921875 L 243.46875 -58.53125 C 245.03125 -51.96875 247.140625 -46.8125 249.796875 -43.0625 C 252.453125 -39.320312 256.273438 -37.453125 261.265625 -37.453125 C 265.953125 -37.453125 270.007812 -40.257812 273.4375 -45.875 C 276.875 -51.5 279.523438 -58.601562 281.390625 -67.1875 C 283.265625 -75.769531 284.203125 -84.742188 284.203125 -94.109375 Z M 158.71875 -56.1875 C 160.59375 -60.550781 161.0625 -66.328125 160.125 -73.515625 L 150.765625 -112.375 C 138.898438 -115.800781 127.816406 -117.515625 117.515625 -117.515625 C 105.035156 -117.515625 95.828125 -115.171875 89.890625 -110.484375 C 83.960938 -105.804688 81 -96.601562 81 -82.875 C 81 -73.820312 82.632812 -65.082031 85.90625 -56.65625 C 89.1875 -48.226562 94.179688 -41.359375 100.890625 -36.046875 C 107.609375 -30.742188 115.804688 -28.09375 125.484375 -28.09375 C 136.097656 -28.09375 143.898438 -30.742188 148.890625 -36.046875 C 153.890625 -41.359375 157.164062 -48.070312 158.71875 -56.1875 Z M 158.71875 -56.1875 "/></g></g></g><g fill="#ffffff" fill-opacity="1"><g transform="translate(1088.274156, 343.21178)"><g><path d="M 87.09375 8.421875 C 76.476562 8.421875 67.191406 5.691406 59.234375 0.234375 C 51.273438 -5.222656 45.03125 -12.554688 40.5 -21.765625 C 35.976562 -30.972656 33.71875 -40.882812 33.71875 -51.5 L 33.71875 -199.921875 C 33.71875 -203.359375 33.328125 -206.554688 32.546875 -209.515625 C 31.765625 -212.484375 28.875 -213.96875 23.875 -213.96875 L 7.484375 -213.96875 C 5.617188 -213.96875 4.84375 -214.4375 5.15625 -215.375 C 5.46875 -216.3125 6.242188 -216.9375 7.484375 -217.25 C 20.597656 -219.75 33.941406 -224.742188 47.515625 -232.234375 C 61.097656 -239.722656 73.429688 -249.320312 84.515625 -261.03125 C 95.597656 -272.738281 103.945312 -285.925781 109.5625 -300.59375 C 109.875 -302.78125 110.65625 -303.875 111.90625 -303.875 C 112.84375 -303.875 113.3125 -302.78125 113.3125 -300.59375 C 113 -284.988281 112.6875 -271.722656 112.375 -260.796875 C 112.0625 -249.867188 111.59375 -238.632812 110.96875 -227.09375 C 110.96875 -223.03125 111.984375 -220.53125 114.015625 -219.59375 C 116.046875 -218.65625 119.085938 -218.1875 123.140625 -218.1875 L 163.875 -218.1875 C 164.5 -218.1875 164.734375 -217.484375 164.578125 -216.078125 C 164.421875 -214.671875 163.09375 -213.96875 160.59375 -213.96875 L 124.078125 -213.96875 C 118.773438 -213.96875 115.265625 -213.1875 113.546875 -211.625 C 111.828125 -210.070312 110.96875 -207.109375 110.96875 -202.734375 L 110.96875 -72.109375 C 110.96875 -56.492188 114.320312 -45.800781 121.03125 -40.03125 C 127.738281 -34.257812 135.929688 -32.851562 145.609375 -35.8125 C 155.285156 -38.78125 164.648438 -45.570312 173.703125 -56.1875 C 175.265625 -57.75 176.359375 -58.140625 176.984375 -57.359375 C 177.609375 -56.578125 177.453125 -55.40625 176.515625 -53.84375 C 159.347656 -31.0625 143.191406 -14.988281 128.046875 -5.625 C 112.910156 3.738281 99.257812 8.421875 87.09375 8.421875 Z M 87.09375 8.421875 "/></g></g></g><g fill="#ffffff" fill-opacity="1"><g transform="translate(1259.644426, 343.21178)"><g><path d="M 65.546875 -256.109375 C 51.503906 -256.109375 40.890625 -259.460938 33.703125 -266.171875 C 26.523438 -272.890625 23.71875 -281.085938 25.28125 -290.765625 C 26.84375 -300.753906 32.460938 -309.101562 42.140625 -315.8125 C 51.816406 -322.519531 64.144531 -325.875 79.125 -325.875 C 93.175781 -325.875 103.867188 -322.519531 111.203125 -315.8125 C 118.535156 -309.101562 121.421875 -300.753906 119.859375 -290.765625 C 118.296875 -281.085938 112.519531 -272.890625 102.53125 -266.171875 C 92.550781 -259.460938 80.222656 -256.109375 65.546875 -256.109375 Z M 116.125 -132.5 L 116.125 -62.265625 C 116.125 -52.898438 116.742188 -43.691406 117.984375 -34.640625 C 119.234375 -25.585938 121.882812 -18.175781 125.9375 -12.40625 C 130 -6.632812 136.09375 -3.59375 144.21875 -3.28125 C 145.769531 -3.28125 146.546875 -2.5 146.546875 -0.9375 C 146.546875 0.625 145.769531 1.25 144.21875 0.9375 C 140.78125 0.625 134.535156 0.46875 125.484375 0.46875 C 116.429688 0.46875 106.207031 0.390625 94.8125 0.234375 C 83.414062 0.078125 71.941406 0.078125 60.390625 0.234375 C 48.847656 0.390625 38.550781 0.46875 29.5 0.46875 C 20.445312 0.46875 14.203125 0.625 10.765625 0.9375 C 9.203125 0.9375 8.421875 0.234375 8.421875 -1.171875 C 8.421875 -2.578125 9.359375 -3.28125 11.234375 -3.28125 C 29.648438 -2.96875 38.859375 -22.628906 38.859375 -62.265625 L 38.859375 -140.46875 C 38.859375 -156.695312 37.0625 -168.554688 33.46875 -176.046875 C 29.882812 -183.535156 21.691406 -186.503906 8.890625 -184.953125 C 7.640625 -184.640625 6.9375 -185.101562 6.78125 -186.34375 C 6.632812 -187.59375 7.179688 -188.375 8.421875 -188.6875 C 19.660156 -191.1875 31.753906 -194.460938 44.703125 -198.515625 C 57.660156 -202.578125 70.304688 -207.257812 82.640625 -212.5625 C 94.972656 -217.875 105.820312 -223.648438 115.1875 -229.890625 C 119.238281 -232.703125 121.265625 -232.078125 121.265625 -228.015625 C 119.703125 -212.097656 118.53125 -198.988281 117.75 -188.6875 C 116.976562 -178.382812 116.515625 -169.019531 116.359375 -160.59375 C 116.203125 -152.164062 116.125 -142.800781 116.125 -132.5 Z M 116.125 -132.5 "/></g></g></g><g fill="#ffffff" fill-opacity="1"><g transform="translate(1413.222106, 343.21178)"><g><path d="M 46.828125 0 C 42.765625 0 37.609375 0.078125 31.359375 0.234375 C 25.117188 0.390625 20.285156 0.625 16.859375 0.9375 C 14.671875 1.25 13.5 0.703125 13.34375 -0.703125 C 13.1875 -2.109375 14.203125 -2.8125 16.390625 -2.8125 C 25.753906 -3.125 33.789062 -7.726562 40.5 -16.625 C 47.207031 -25.519531 50.5625 -41.046875 50.5625 -63.203125 L 50.5625 -264.546875 C 50.5625 -286.703125 47.128906 -302.226562 40.265625 -311.125 C 33.398438 -320.019531 25.441406 -324.625 16.390625 -324.9375 C 14.203125 -324.9375 13.1875 -325.5625 13.34375 -326.8125 C 13.5 -328.0625 14.671875 -328.6875 16.859375 -328.6875 C 20.285156 -328.375 25.117188 -328.140625 31.359375 -327.984375 C 37.609375 -327.828125 42.765625 -327.75 46.828125 -327.75 C 55.253906 -327.75 65.316406 -327.984375 77.015625 -328.453125 C 88.722656 -328.921875 100.816406 -329.3125 113.296875 -329.625 C 125.785156 -329.9375 137.492188 -330.25 148.421875 -330.5625 C 159.347656 -330.875 168.242188 -331.03125 175.109375 -331.03125 C 206.015625 -331.03125 230.832031 -327.441406 249.5625 -320.265625 C 268.289062 -313.085938 281.789062 -303.878906 290.0625 -292.640625 C 298.332031 -281.398438 302.46875 -269.535156 302.46875 -257.046875 C 302.46875 -211.472656 274.0625 -185.566406 217.25 -179.328125 C 239.414062 -178.390625 258.925781 -174.644531 275.78125 -168.09375 C 292.632812 -161.539062 305.820312 -152.253906 315.34375 -140.234375 C 324.863281 -128.210938 329.625 -112.992188 329.625 -94.578125 C 329.625 -63.054688 316.671875 -38.863281 290.765625 -22 C 264.859375 -5.144531 227.085938 3.28125 177.453125 3.28125 C 154.671875 3.28125 132.039062 2.8125 109.5625 1.875 C 87.082031 0.9375 66.171875 0.3125 46.828125 0 Z M 146.546875 -180.734375 L 159.65625 -181.203125 C 176.519531 -182.765625 189.398438 -188.925781 198.296875 -199.6875 C 207.191406 -210.457031 211.640625 -227.238281 211.640625 -250.03125 C 211.640625 -267.820312 208.90625 -282.253906 203.4375 -293.328125 C 197.976562 -304.410156 191.035156 -312.601562 182.609375 -317.90625 C 174.179688 -323.21875 165.597656 -325.875 156.859375 -325.875 L 142.8125 -326.8125 C 139.0625 -326.8125 136.640625 -325.953125 135.546875 -324.234375 C 134.453125 -322.523438 133.90625 -319.328125 133.90625 -314.640625 L 133.90625 -21.53125 C 133.90625 -13.726562 135 -8.34375 137.1875 -5.375 C 139.375 -2.414062 144.054688 -0.9375 151.234375 -0.9375 L 165.75 -0.9375 C 184.164062 -0.9375 199.691406 -7.644531 212.328125 -21.0625 C 224.972656 -34.488281 231.296875 -55.40625 231.296875 -83.8125 C 231.296875 -111.59375 226.066406 -133.910156 215.609375 -150.765625 C 205.148438 -167.617188 186.65625 -176.203125 160.125 -176.515625 L 147.015625 -176.984375 C 145.148438 -176.984375 144.21875 -177.53125 144.21875 -178.625 C 144.21875 -179.71875 144.992188 -180.421875 146.546875 -180.734375 Z M 146.546875 -180.734375 "/></g></g></g><g fill="#ffffff" fill-opacity="1"><g transform="translate(1756.430746, 343.21178)"><g><path d="M 179.328125 -226.15625 C 187.441406 -226.15625 195.398438 -224.671875 203.203125 -221.703125 C 211.003906 -218.734375 217.085938 -214.4375 221.453125 -208.8125 C 225.828125 -203.195312 226.925781 -196.488281 224.75 -188.6875 L 193.84375 -83.8125 C 193.53125 -81.9375 192.828125 -81.234375 191.734375 -81.703125 C 190.640625 -82.171875 190.25 -83.1875 190.5625 -84.75 C 194 -104.414062 193.453125 -120.566406 188.921875 -133.203125 C 184.398438 -145.847656 178.003906 -155.210938 169.734375 -161.296875 C 161.460938 -167.390625 153.421875 -170.4375 145.609375 -170.4375 C 137.179688 -170.4375 130.859375 -166.453125 126.640625 -158.484375 C 122.429688 -150.523438 119.625 -139.988281 118.21875 -126.875 C 116.820312 -113.769531 116.125 -99.570312 116.125 -84.28125 L 116.125 -51.5 C 116.125 -34.019531 117.835938 -21.691406 121.265625 -14.515625 C 124.703125 -7.335938 132.351562 -3.59375 144.21875 -3.28125 C 145.769531 -3.28125 146.546875 -2.578125 146.546875 -1.171875 C 146.546875 0.234375 145.769531 0.9375 144.21875 0.9375 C 138.28125 0.625 129.222656 0.390625 117.046875 0.234375 C 104.878906 0.078125 91.769531 0 77.71875 0 C 63.675781 0 50.566406 0.078125 38.390625 0.234375 C 26.222656 0.390625 17.015625 0.625 10.765625 0.9375 C 9.203125 0.9375 8.421875 0.234375 8.421875 -1.171875 C 8.421875 -2.578125 9.359375 -3.28125 11.234375 -3.28125 C 18.097656 -3.28125 23.484375 -4.054688 27.390625 -5.609375 C 31.296875 -7.171875 34.179688 -11.382812 36.046875 -18.25 C 37.921875 -25.125 38.859375 -36.363281 38.859375 -51.96875 L 38.859375 -140.46875 C 38.859375 -156.695312 37.0625 -168.554688 33.46875 -176.046875 C 29.882812 -183.535156 21.691406 -186.503906 8.890625 -184.953125 C 7.640625 -184.640625 6.9375 -185.101562 6.78125 -186.34375 C 6.632812 -187.59375 7.179688 -188.375 8.421875 -188.6875 C 19.660156 -191.1875 31.753906 -194.460938 44.703125 -198.515625 C 57.660156 -202.578125 70.304688 -207.257812 82.640625 -212.5625 C 94.972656 -217.875 105.820312 -223.648438 115.1875 -229.890625 C 119.238281 -232.703125 121.265625 -232.078125 121.265625 -228.015625 C 120.015625 -213.035156 119 -200.628906 118.21875 -190.796875 C 117.445312 -180.960938 116.90625 -172.066406 116.59375 -164.109375 C 116.28125 -156.148438 116.125 -147.488281 116.125 -138.125 C 117.363281 -147.488281 119.234375 -157.320312 121.734375 -167.625 C 124.234375 -177.925781 127.898438 -187.523438 132.734375 -196.421875 C 137.578125 -205.316406 143.742188 -212.492188 151.234375 -217.953125 C 158.722656 -223.421875 168.085938 -226.15625 179.328125 -226.15625 Z M 179.328125 -226.15625 "/></g></g><g transform="translate(1988.670216, 343.21178)"><g><path d="M 130.171875 8.421875 C 106.128906 8.421875 84.898438 3.660156 66.484375 -5.859375 C 48.066406 -15.378906 33.707031 -28.644531 23.40625 -45.65625 C 13.101562 -62.664062 7.953125 -82.40625 7.953125 -104.875 C 7.953125 -128.601562 13.960938 -149.519531 25.984375 -167.625 C 38.003906 -185.726562 54.234375 -200.007812 74.671875 -210.46875 C 95.117188 -220.925781 117.988281 -226.15625 143.28125 -226.15625 C 168.25 -226.15625 190.175781 -221.394531 209.0625 -211.875 C 227.945312 -202.351562 242.691406 -189.160156 253.296875 -172.296875 C 263.910156 -155.441406 269.21875 -135.78125 269.21875 -113.3125 C 269.21875 -89.894531 263.050781 -68.976562 250.71875 -50.5625 C 238.394531 -32.144531 221.695312 -17.707031 200.625 -7.25 C 179.5625 3.195312 156.078125 8.421875 130.171875 8.421875 Z M 164.8125 -3.75 C 176.988281 -3.4375 186.585938 -6.710938 193.609375 -13.578125 C 200.628906 -20.441406 204.140625 -30.273438 204.140625 -43.078125 C 204.140625 -54.628906 202.109375 -67.894531 198.046875 -82.875 C 193.992188 -97.851562 188.535156 -112.910156 181.671875 -128.046875 C 174.804688 -143.191406 167.234375 -157.316406 158.953125 -170.421875 C 150.679688 -183.535156 142.410156 -194.148438 134.140625 -202.265625 C 125.867188 -210.378906 118.144531 -214.59375 110.96875 -214.90625 C 99.414062 -215.21875 90.050781 -212.019531 82.875 -205.3125 C 75.695312 -198.601562 72.109375 -188.378906 72.109375 -174.640625 C 72.109375 -163.097656 74.132812 -149.910156 78.1875 -135.078125 C 82.25 -120.253906 87.710938 -105.269531 94.578125 -90.125 C 101.441406 -74.988281 109.007812 -60.941406 117.28125 -47.984375 C 125.5625 -35.035156 133.835938 -24.503906 142.109375 -16.390625 C 150.378906 -8.273438 157.945312 -4.0625 164.8125 -3.75 Z M 164.8125 -3.75 "/></g></g></g><g fill="#ffffff" fill-opacity="1"><g transform="translate(2265.859084, 343.21178)"><g><path d="M 14.515625 -29.03125 L 31.375 -95.046875 C 31.6875 -96.296875 32.304688 -96.921875 33.234375 -96.921875 C 34.171875 -96.921875 34.796875 -96.140625 35.109375 -94.578125 C 37.609375 -77.097656 42.367188 -60.941406 49.390625 -46.109375 C 56.421875 -31.285156 65.394531 -19.503906 76.3125 -10.765625 C 87.238281 -2.023438 99.257812 2.34375 112.375 2.34375 C 120.800781 2.34375 127.664062 0.859375 132.96875 -2.109375 C 138.28125 -5.078125 140.9375 -10.460938 140.9375 -18.265625 C 140.625 -31.367188 134.222656 -43.617188 121.734375 -55.015625 C 109.253906 -66.410156 94.738281 -77.570312 78.1875 -88.5 C 68.195312 -95.675781 58.753906 -102.851562 49.859375 -110.03125 C 40.960938 -117.207031 33.707031 -124.929688 28.09375 -133.203125 C 22.476562 -141.472656 19.515625 -150.445312 19.203125 -160.125 C 18.578125 -173.238281 22.789062 -184.710938 31.84375 -194.546875 C 40.894531 -204.378906 53.300781 -212.101562 69.0625 -217.71875 C 84.820312 -223.34375 102.535156 -226.15625 122.203125 -226.15625 C 130.628906 -226.15625 140.070312 -225.53125 150.53125 -224.28125 C 160.988281 -223.03125 170.976562 -221.078125 180.5 -218.421875 C 190.019531 -215.765625 197.664062 -212.5625 203.4375 -208.8125 C 209.21875 -205.070312 211.484375 -200.707031 210.234375 -195.71875 L 192.90625 -131.09375 C 192.59375 -130.164062 192.046875 -129.703125 191.265625 -129.703125 C 190.484375 -129.703125 190.09375 -130.320312 190.09375 -131.5625 C 187.59375 -150.914062 182.285156 -167.144531 174.171875 -180.25 C 166.054688 -193.363281 156.300781 -203.195312 144.90625 -209.75 C 133.519531 -216.3125 121.582031 -219.59375 109.09375 -219.59375 C 99.726562 -219.59375 93.484375 -218.03125 90.359375 -214.90625 C 87.242188 -211.789062 85.6875 -207.890625 85.6875 -203.203125 C 85.6875 -194.460938 91.457031 -185.488281 103 -176.28125 C 114.550781 -167.070312 130.316406 -156.070312 150.296875 -143.28125 C 160.285156 -137.03125 170.117188 -130.003906 179.796875 -122.203125 C 189.472656 -114.398438 197.585938 -105.503906 204.140625 -95.515625 C 210.691406 -85.523438 214.28125 -74.289062 214.90625 -61.8125 C 215.53125 -47.132812 211.238281 -34.566406 202.03125 -24.109375 C 192.820312 -13.648438 179.789062 -5.613281 162.9375 0 C 146.082031 5.613281 126.726562 8.421875 104.875 8.421875 C 94.269531 8.421875 83.347656 7.484375 72.109375 5.609375 C 60.867188 3.742188 50.722656 1.019531 41.671875 -2.5625 C 32.617188 -6.15625 25.515625 -10.210938 20.359375 -14.734375 C 15.210938 -19.265625 13.265625 -24.03125 14.515625 -29.03125 Z M 14.515625 -29.03125 "/></g></g></g></g></g></g></g></g></svg>